<svg width="41" height="50" viewBox="0 0 41 50" xmlns="http://www.w3.org/2000/svg">
    <defs>
        <linearGradient x1="31.011%" y1="107.128%" x2="70.809%" y2="-7.898%" id="y205tyn7ca">
            <stop stop-color="#BAC4CA" stop-opacity=".269" offset="0%"/>
            <stop stop-color="#B9CED5" offset="100%"/>
        </linearGradient>
    </defs>
    <path d="M27.885 12.108c-.34.324-.817.59-1.31.59-.458.003-.845-.213-1.192-.43-1.323-.826-3.658-2.845-2.544-4.558 1.158-1.783 4.582.113 5.321 1.103.716.954.704 2.363-.275 3.295M25.27 18.94c-1.22-.11-1.818-1.783-2.972-2.18-1.613-.551-2.806 1.559-4.178 2.138-.837.355-1.874.242-2.313-.507-.37-.635-.214-1.533.167-2.246.266-.502.63-.935 1.05-1.298a5.637 5.637 0 0 1 1.884-1.062c1.174-.39 2.392-.419 3.577-.383.882.028 1.768.095 2.58.389.81.296 1.547.845 1.925 1.658.57 1.234 0 3.646-1.72 3.491M15.228 8.93c.786-1.024 4.294-3.075 5.375-1.342 1.04 1.666-1.383 3.79-2.742 4.675-.358.233-.753.466-1.21.485-.495.02-.96-.224-1.289-.532-.94-.89-.89-2.3-.134-3.286m25.207 14.976c-.115-1.037-.394-2.118-1.24-2.911-.632-.59-1.513-.957-2.315-1.39-1.676-.9-3.173-2.379-4.364-3.904-1.149-1.472-1.112-3.643-1.196-5.485-.1-2.118-.377-4.29-1.372-6.12C27.831.206 23.431-.618 19.482.397c-2.368.608-4.35 2.11-5.523 4.448-1.852 3.696-1.87 8.164-4.865 11.247-1.233 1.27-2.663 2.235-4.261 2.845-.872.333-1.813.59-2.544 1.101C1.305 20.72.83 21.76.526 22.772c-.383 1.273-1.49 8.78 1.438 8.59 1.109-.071 1.198-1.616 2.272-1.854.902-.2 1.741.698 2.64.485 1.085-.258.813-1.642 1.588-2.315.321-.283.794-.405 1.195-.608 1.203-.599 1.622-1.744 2.019-2.903.094.336.2.666.318.996.287.81.64 1.696.348 2.537-.372 1.07-1.578 1.489-2.345 2.298-1.764 1.864-.87 5.36-2.625 7.235-.802.857-1.962 1.145-2.978 1.667-3.06 1.566-2.749 7.104-2.596 10.057.02.383.08.832.396.993.352.177.792-.144.945-.538.155-.396.117-.835.123-1.256.031-1.952 1.193-3.882 2.857-4.75 2.083-1.085 4.29-.608 5.8-2.964.658-1.026.978-2.271 1.7-3.248 1.433-1.93 3.97-2.282 6.223-2.482 1.308-.116 2.638-.238 3.867-.773 1.868-.813 3.33-2.51 4.327-4.398.631-1.195 1.097-2.482 1.533-3.777.209.51.523.968 1.041 1.317.36.247.805.425 1.07.74.641.758.119 2.097 1.147 2.48.847.316 1.844-.474 2.697-.17 1.021.364.826 1.903 1.908 2.103 2.86.532 3.146-7.022 3.001-8.328" fill="url(#y205tyn7ca)" fill-rule="evenodd"/>
</svg>
