<svg width="23" height="24" viewBox="0 0 23 24" xmlns="http://www.w3.org/2000/svg">
    <g fill="#FFF" fill-rule="evenodd">
        <path d="M13.118 12.072s.07-3.87-4.131-3.429c-4.202.44-4.516 3.53-4.516 3.53s-.11 2.579 4.328 3.305c4.438.725 4.32-3.406 4.32-3.406"/>
        <path d="M13.435 14.142c-1.122-.02-2.015-.931-1.995-2.035.02-1.105.945-1.983 2.068-1.963 1.122.02 2.015.931 1.995 2.035-.02 1.105-.945 1.983-2.068 1.963M11.61 14.684a.427.427 0 0 1 .707-.313 11.053 11.053 0 0 0 3.195 1.922c1.46.567 3.113 1.206 4.69.489 1.013-.461 1.63-1.325 1.967-1.966a.43.43 0 0 1 .758.4c-.575 1.09-1.393 1.9-2.37 2.345-1.905.868-3.816.128-5.352-.467a11.927 11.927 0 0 1-3.444-2.07.428.428 0 0 1-.15-.34M11.508 9.587a.427.427 0 0 1 .162-.322 11.917 11.917 0 0 1 3.516-1.945c1.558-.54 3.495-1.208 5.369-.274.957.48 1.747 1.32 2.282 2.43a.428.428 0 0 1-.771.371c-.316-.653-.9-1.538-1.895-2.034-1.55-.774-3.225-.194-4.702.316a11.085 11.085 0 0 0-3.265 1.806.43.43 0 0 1-.696-.348M10.163 9.046a.426.426 0 0 1 .053-.193c.6-1.097 1.281-2.146 2.028-3.115 1.242-1.619 2.315-3.017 4.163-3.864a8.056 8.056 0 0 1 2.738-.7.43.43 0 0 1 .46.394.43.43 0 0 1-.394.46 7.214 7.214 0 0 0-2.447.626c-1.575.722-2.486 1.84-3.84 3.606a23.087 23.087 0 0 0-1.956 3.005.429.429 0 0 1-.805-.219M10.114 15.367a.43.43 0 0 1 .812-.179 23.225 23.225 0 0 0 1.844 3.075c1.291 1.812 2.16 2.962 3.709 3.741.745.375 1.56.615 2.423.713a.43.43 0 0 1 .376.474.427.427 0 0 1-.474.377 8.036 8.036 0 0 1-2.71-.798c-1.817-.913-2.839-2.349-4.022-4.011a24 24 0 0 1-1.913-3.187.438.438 0 0 1-.045-.205M3.794.931a.428.428 0 0 1 .64-.36 9.244 9.244 0 0 1 3.26 3.104c1.351 2.15 1.452 4.327 1.39 5.437a.429.429 0 0 1-.856-.037v-.01c.053-1.004-.036-2.985-1.26-4.934a8.392 8.392 0 0 0-2.956-2.814.428.428 0 0 1-.218-.386M3.375 23.11a.43.43 0 0 1 .23-.367 8.367 8.367 0 0 0 3.056-2.706c1.293-1.902 1.455-3.879 1.437-4.884-.012-.264.185-.432.421-.437a.428.428 0 0 1 .437.42c.022 1.106-.159 3.284-1.586 5.383A9.225 9.225 0 0 1 4 23.503a.428.428 0 0 1-.625-.393"/>
        <path d="M.702 4.293a.428.428 0 0 1 .376-.411c.592-.072 2.66-.197 4.433 1.266 2.305 1.904 2.1 4.792 2.067 5.116a.428.428 0 1 1-.854-.083c.029-.276.205-2.751-1.758-4.372-1.51-1.246-3.278-1.14-3.783-1.076a.43.43 0 0 1-.478-.374C.702 4.337.7 4.315.702 4.293M.428 19.402l.005-.055a.43.43 0 0 1 .492-.357c.504.08 2.27.249 3.818-.938 2.059-1.578 1.925-4.193 1.918-4.305a.43.43 0 0 1 .856-.053c.021.328.123 3.216-2.252 5.038-1.82 1.395-3.885 1.199-4.475 1.105a.43.43 0 0 1-.362-.435M16.608 11.748s-.691-1.045-1.344-.605c-.653.44-.463.637-.463.637M16.59 12.73s-.728 1.02-1.365.556c-.637-.463-.44-.653-.44-.653"/>
    </g>
</svg>
