<svg width="27" height="55" viewBox="0 0 27 55" xmlns="http://www.w3.org/2000/svg">
    <g fill="#FFF" fill-rule="evenodd">
        <path d="M13.416 42.804s4.514.081 4-4.82c-.513-4.902-4.119-5.268-4.119-5.268s-3.008-.129-3.855 5.05c-.846 5.177 3.974 5.038 3.974 5.038"/>
        <path d="M11 43.174c.025-1.309 1.088-2.35 2.376-2.328 1.289.024 2.313 1.104 2.29 2.414-.024 1.309-1.087 2.35-2.375 2.327-1.29-.023-2.313-1.103-2.29-2.413M10.368 41.046a.498.498 0 0 1 .365.824 12.896 12.896 0 0 0-2.242 3.728c-.66 1.704-1.407 3.632-.57 5.472.538 1.18 1.545 1.9 2.293 2.294a.5.5 0 0 1-.466.885c-1.272-.671-2.218-1.626-2.736-2.765C6 49.26 6.863 47.03 7.557 45.24a13.915 13.915 0 0 1 2.415-4.02c.103-.12.25-.18.396-.174M16.315 40.927a.499.499 0 0 1 .376.188 13.903 13.903 0 0 1 2.269 4.101c.63 1.819 1.41 4.078.32 6.264-.56 1.117-1.54 2.04-2.834 2.664a.5.5 0 0 1-.434-.9c.762-.37 1.794-1.05 2.373-2.212.903-1.808.227-3.761-.37-5.484a12.933 12.933 0 0 0-2.106-3.81.5.5 0 0 1 .406-.811M16.946 39.357a.498.498 0 0 1 .225.062 27.85 27.85 0 0 1 3.635 2.365c1.888 1.45 3.52 2.701 4.507 4.857.455.993.73 2.068.818 3.195a.502.502 0 0 1-.46.537.501.501 0 0 1-.537-.46 8.417 8.417 0 0 0-.73-2.855c-.843-1.838-2.147-2.9-4.207-4.48a26.934 26.934 0 0 0-3.506-2.282.5.5 0 0 1 .255-.939M9.572 39.3a.501.501 0 0 1 .209.947 27.096 27.096 0 0 0-3.588 2.151c-2.113 1.506-3.455 2.52-4.364 4.327a8.386 8.386 0 0 0-.832 2.827.502.502 0 0 1-.553.44.498.498 0 0 1-.44-.553 9.375 9.375 0 0 1 .931-3.163c1.066-2.12 2.74-3.312 4.68-4.693a28 28 0 0 1 3.717-2.23.51.51 0 0 1 .24-.053M26.414 31.927a.5.5 0 0 1 .42.747 10.784 10.784 0 0 1-3.621 3.801c-2.508 1.578-5.048 1.696-6.343 1.623a.5.5 0 0 1 .043-.998h.012c1.17.062 3.482-.043 5.756-1.471a9.79 9.79 0 0 0 3.283-3.448.5.5 0 0 1 .45-.254M.538 31.437a.5.5 0 0 1 .429.27 9.761 9.761 0 0 0 3.157 3.564c2.219 1.51 4.525 1.697 5.698 1.677.308-.014.504.215.509.491a.5.5 0 0 1-.49.51c-1.29.025-3.831-.186-6.28-1.85A10.763 10.763 0 0 1 .08 32.166a.499.499 0 0 1 .458-.73"/>
        <path d="M22.491 28.32a.5.5 0 0 1 .48.437c.084.691.23 3.104-1.477 5.172-2.221 2.69-5.591 2.451-5.969 2.412a.5.5 0 1 1 .097-.996c.322.033 3.21.24 5.101-2.052 1.453-1.76 1.329-3.824 1.255-4.413a.502.502 0 0 1 .436-.558c.026-.003.052-.004.077-.003M4.864 28a.502.502 0 0 1 .48.579c-.093.588-.29 2.648 1.095 4.455 1.841 2.402 4.893 2.246 5.022 2.237a.5.5 0 0 1 .063.999c-.382.025-3.752.144-5.878-2.627-1.627-2.123-1.399-4.533-1.29-5.221A.502.502 0 0 1 4.864 28M13.794 46.876s1.22-.806.706-1.568-.744-.54-.744-.54M12.648 46.855s-1.189-.85-.648-1.593c.54-.743.761-.512.761-.512"/>
        <circle cx="13" cy="4" r="4"/>
        <path d="M12 4h2v35h-2z"/>
    </g>
</svg>
