<svg width="22" height="24" viewBox="0 0 22 24" xmlns="http://www.w3.org/2000/svg" xmlns:xlink="http://www.w3.org/1999/xlink">
    <defs>
        <linearGradient x1="55.7%" y1="106.22%" x2="50%" y2="-10.206%" id="cbl4k9cypb">
            <stop stop-color="#FFF" stop-opacity=".286" offset="0%"/>
            <stop stop-color="#FFF" offset="100%"/>
        </linearGradient>
        <path d="M12.775 0c.563-.013 1.089.26 1.62.45.531.192 1.162.292 1.625-.036.11-.075.208-.174.333-.213.127-.038.294.02.315.154.016.102-.062.195-.137.267a3.923 3.923 0 0 1-1.489.899c-.32.106-.722.24-.767.582-.033.25.155.465.294.673.265.396.368.887.322 1.363a5.246 5.246 0 0 1 1.256 1.683c.653 1.375.725 2.804.507 4.22.244.195.578.245 1.056.092.354-.112.68-.3 1.03-.428s.744-.193 1.087-.05c.338.14.577.465.7.814.125.35.147.728.16 1.1.047 1.406-.051 2.87-.7 4.111-.181.352-.423.696-.776.866-.353.17-.836.109-1.05-.225-.149-.235-.136-.536-.204-.805-.07-.271-.305-.553-.568-.476-.282.082-.405.528-.697.499-.347-.035-.302-.657-.621-.8-.18-.08-.385.034-.58.027a.504.504 0 0 1-.292-.107c-.268.636-.518 1.27-.65 1.978-.027.142-.047.305.043.417.097.118.27.122.42.118.508-.016 1.02-.12 1.49.122.331.171.878.643.878 1.071.16.579.306 1.398.877 1.712 1.06.585 2.1-1.236 3.007.11.413.613.925 1.92.665 2.674-.046.132-.151.25-.286.272-.172.027-.333-.108-.413-.264-.08-.158-.104-.337-.161-.504-.092-.271-.34-.658-.628-.748-.406-.127-.507.267-.696.586-.284.48-.851.768-1.398.71-.481-.055-.9-.345-1.32-.591-.78-.46-1.403-.459-2.152.041-.6.402-1.108.95-1.746 1.282-1.433.749-3.26.236-4.466-.85-1.207-1.087-1.908-2.635-2.464-4.177a33.146 33.146 0 0 1-1.136-3.864c-.15-.025-.301-.075-.437-.015-.32.143-.275.765-.622.8-.29.03-.414-.417-.695-.499-.263-.077-.5.205-.568.476-.069.27-.057.57-.206.805-.212.334-.697.395-1.049.225-.353-.17-.594-.514-.777-.866C.06 14.44-.037 12.976.01 11.57c.013-.372.036-.75.16-1.1.124-.349.363-.674.7-.814.344-.143.739-.078 1.087.05.35.128.676.316 1.031.428.73.232 1.123-.004 1.38-.514.155-1.946.961-4.284 2.541-5.462.394-.294.83-.51 1.29-.67.227-.561.426-1.146.874-1.526.322-.273.733-.402 1.104-.599.438-.232.82-.558 1.232-.836m2.89 9.993c-.136-.06-.293.015-.402.114-.19.173-.316.393-.526.537.027.069.058.146.069.22a.43.43 0 0 1-.226.45c-.158.073-.364.028-.504-.104a.753.753 0 0 1-.132-.171 5.061 5.061 0 0 1-1.706.379 5.111 5.111 0 0 1-1.56-.182c-.053.159-.115.307-.251.381-.218.115-.516-.048-.654-.288a1.17 1.17 0 0 1-.14-.511 4.768 4.768 0 0 1-.472-.28c-.156-.103-.434-.43-.628-.352-.23.093-.15.488-.118.666.095.489.299.958.576 1.365a3.59 3.59 0 0 0 1.27 1.153c1.208.64 2.755.516 3.885-.262.818-.565 1.651-1.604 1.71-2.649.01-.166-.023-.362-.156-.447M7.08 7.925c.073.671.215 1.343.645 1.841.223.26.553.463.884.4.259-.05.464-.249.627-.459.068-.086.13-.178.196-.267m4.974-1.515a3.757 3.757 0 0 0-2.352 1.515c.065.09.128.18.195.267.164.21.369.409.627.458.332.064.662-.14.883-.399" id="ypbg740qva"/>
    </defs>
    <g transform="matrix(-1 0 0 1 22 0)" fill="none" fill-rule="evenodd">
        <mask id="9n3bxn875c" fill="#fff">
            <use xlink:href="#ypbg740qva"/>
        </mask>
        <path d="M14.49 10.986c-.059 1.045-.892 2.084-1.71 2.65-1.13.777-2.677.9-3.886.26a3.59 3.59 0 0 1-1.27-1.152 3.705 3.705 0 0 1-.575-1.365c-.033-.178-.112-.573.118-.666.194-.077.472.25.628.353.152.102.31.195.471.279.013.18.05.354.141.51.138.24.436.404.654.29.136-.075.198-.223.252-.382a5.111 5.111 0 0 0 1.559.182 5.061 5.061 0 0 0 1.706-.38c.037.064.08.122.132.172.14.132.346.177.504.104a.43.43 0 0 0 .226-.45c-.01-.074-.042-.151-.069-.22.21-.144.336-.364.526-.537.11-.1.266-.173.402-.114a.269.269 0 0 1 .035.019c.133.085.166.281.157.447M9.43 9.44c-.064.09-.127.18-.195.267-.163.21-.368.409-.627.458-.33.064-.661-.14-.884-.399-.43-.498-.572-1.17-.645-1.84.934.173 1.797.728 2.352 1.514m4.974-1.515c-.074.671-.215 1.343-.647 1.841-.221.26-.551.463-.883.4-.258-.05-.463-.249-.627-.459-.067-.086-.13-.178-.195-.267a3.757 3.757 0 0 1 2.352-1.515m6.858 12.263c-.908-1.346-1.947.475-3.007-.11-.57-.314-.717-1.133-.877-1.712 0-.428-.547-.9-.878-1.071-.47-.243-.982-.138-1.49-.122-.15.004-.323 0-.42-.118-.09-.112-.07-.275-.043-.417.132-.709.382-1.342.65-1.978.084.063.18.103.292.107.195.007.4-.107.58-.027.319.143.274.765.621.8.292.03.415-.417.697-.499.263-.077.499.205.568.476.068.27.055.57.204.805.214.334.697.395 1.05.225.353-.17.595-.514.777-.866.648-1.241.746-2.705.698-4.111-.012-.372-.034-.75-.158-1.1-.124-.349-.363-.674-.701-.814-.343-.143-.738-.078-1.088.05-.348.128-.675.316-1.03.428-.477.153-.81.103-1.055-.091.218-1.417.146-2.846-.507-4.22a5.246 5.246 0 0 0-1.256-1.684 2.095 2.095 0 0 0-.322-1.363c-.14-.208-.327-.423-.294-.673.045-.342.447-.476.767-.582a3.923 3.923 0 0 0 1.49-.9c.074-.07.152-.164.136-.266-.02-.134-.188-.192-.315-.154-.125.04-.223.138-.333.213-.463.328-1.094.228-1.624.037-.532-.19-1.058-.464-1.621-.45-.493.013-.955.248-1.366.526-.412.278-.794.604-1.232.836-.37.197-.782.326-1.104.599-.448.38-.647.965-.874 1.526-.46.16-.896.376-1.29.67C5.33 5.336 4.523 7.674 4.367 9.62c-.256.51-.65.746-1.379.514-.355-.112-.681-.3-1.03-.428-.35-.128-.744-.193-1.088-.05-.337.14-.576.465-.7.814-.124.35-.147.728-.16 1.1-.047 1.406.05 2.87.699 4.111.183.352.424.696.777.866.352.17.837.109 1.05-.225.148-.235.136-.536.205-.805.069-.271.305-.553.568-.476.28.082.405.528.695.499.347-.035.302-.657.622-.8.136-.06.286-.01.437.015.3 1.31.68 2.602 1.136 3.864.556 1.542 1.257 3.09 2.464 4.177 1.207 1.086 3.033 1.599 4.466.85.638-.332 1.145-.88 1.746-1.282.75-.5 1.372-.5 2.152-.041.42.246.839.536 1.32.59.547.06 1.114-.23 1.398-.709.189-.32.29-.713.696-.586.287.09.536.477.628.748.057.167.08.346.16.504.081.156.242.291.414.264.135-.021.24-.14.286-.272.26-.755-.252-2.061-.665-2.674" fill="url(#cbl4k9cypb)" mask="url(#9n3bxn875c)"/>
    </g>
</svg>
